<svg xmlns="http://www.w3.org/2000/svg" viewBox="0 0 1547.43 2359.94"><defs><style>.cls-1{fill:#31344b;}</style></defs><title>Asset 1</title><g id="Layer_2" data-name="Layer 2"><g id="Layer_1-2" data-name="Layer 1"><path class="cls-1" d="M367.88,2359.94a366.81,366.81,0,0,1-232.46-82.59C49.38,2207.09,0,2103.3,0,1992.51V379.33C0,198.49,122.41,42.21,291.11,7.77c110.23-22.67,222.62,4.83,308.5,75s135.28,174,135.28,284.63V773.7a38.9,38.9,0,0,0,38.91,38.84l101.13-.07H875a62.71,62.71,0,0,1,.07,125.42l-101.2.07c-90.7,0-164.4-73.7-164.4-164.26V367.36c0-72.85-32.54-141.16-89.23-187.49-57.39-46.82-129.75-64.46-204.08-49.2C205.65,153.21,125.42,257.83,125.42,379.33V1992.51a241.45,241.45,0,0,0,89.33,187.7c57.39,46.82,129.79,64.32,203.94,49.13,33.32-6.51,67.05,14.91,74,48.92a62.74,62.74,0,0,1-48.92,74A377.62,377.62,0,0,1,367.88,2359.94Z"/><path class="cls-1" d="M1179.51,2359.94a376.67,376.67,0,0,1-75.72-7.7c-168.74-34.36-291.22-190.64-291.22-371.56V1586.31a38.84,38.84,0,1,0-77.68,0,62.71,62.71,0,0,1-125.42,0c0-90.63,73.7-164.33,164.26-164.33S938,1495.68,938,1586.31v394.37c0,121.57,80.27,226.13,190.85,248.66,74.05,15.26,146.55-2.38,203.87-49.2a241.37,241.37,0,0,0,89.3-187.63,62.71,62.71,0,0,1,125.42,0,367.61,367.61,0,0,1-367.92,367.43Z"/><path class="cls-1" d="M1180,2156.91c-90.56,0-164.26-73.7-164.26-164.33V1484.76c0-77.47-63-140.46-140.46-140.46a62.71,62.71,0,0,1,0-125.42c146.62,0,265.88,119.26,265.88,265.88v507.82a38.84,38.84,0,1,0,77.68,0V1484.76c0-189.45-154.11-343.63-343.56-343.63H672.11c-146.55,0-265.81-119.26-265.81-265.81V367.43a38.88,38.88,0,0,0-77.75,0,62.71,62.71,0,0,1-125.42,0c0-90.56,73.7-164.25,164.26-164.25s164.33,73.69,164.33,164.25V875.32c0,77.41,63,140.39,140.39,140.39H875.28c258.6,0,469,210.45,469,469.05v507.82C1344.26,2083.21,1270.56,2156.91,1180,2156.91Z"/><path class="cls-1" d="M367.39,2156.91c-90.56,0-164.26-73.7-164.26-164.33a62.71,62.71,0,0,1,125.42,0,38.88,38.88,0,1,0,77.75,0V1484.76c0-146.62,119.26-265.88,265.81-265.88a62.71,62.71,0,1,1,0,125.42c-77.4,0-140.39,63-140.39,140.46v507.82C531.72,2083.21,458,2156.91,367.39,2156.91Z"/><path class="cls-1" d="M265.84,1707.39a62.7,62.7,0,0,1-62.71-62.71V582.85a62.71,62.71,0,0,1,125.42,0V1644.68A62.7,62.7,0,0,1,265.84,1707.39Z"/><circle class="cls-1" cx="265.85" cy="1815.03" r="62.71"/></g></g></svg>