<?xml version="1.0" standalone="no"?>
<!DOCTYPE svg PUBLIC "-//W3C//DTD SVG 20010904//EN"
 "http://www.w3.org/TR/2001/REC-SVG-20010904/DTD/svg10.dtd">
<svg version="1.0" xmlns="http://www.w3.org/2000/svg"
 width="1770.000000pt" height="1770.000000pt" viewBox="0 0 1770.000000 1770.000000"
 preserveAspectRatio="xMidYMid meet">
<metadata>
Created by potrace 1.11, written by Peter Selinger 2001-2013
</metadata>
<g transform="translate(0.000000,1770.000000) scale(0.100000,-0.100000)"
fill="#000000" stroke="none">
<path d="M5598 17695 c-2 -1 -41 -6 -88 -10 -46 -3 -87 -8 -90 -10 -3 -2 -27
-6 -55 -9 -204 -23 -498 -115 -730 -226 -295 -141 -508 -292 -740 -525 -142
-142 -169 -173 -256 -291 -178 -239 -281 -423 -382 -679 -47 -120 -107 -302
-121 -370 -35 -166 -47 -227 -52 -270 -4 -27 -8 -52 -9 -55 -2 -3 -7 -44 -12
-90 -10 -109 -11 -12590 0 -12690 7 -64 18 -140 42 -275 23 -127 102 -377 172
-539 93 -219 264 -494 423 -681 14 -16 86 -91 160 -166 126 -126 263 -243 370
-314 25 -17 47 -33 50 -36 22 -26 290 -172 421 -229 195 -86 503 -176 669
-196 19 -2 44 -6 55 -9 121 -27 596 -27 775 0 144 23 251 50 302 77 227 121
316 393 203 623 -57 119 -177 216 -306 250 -56 15 -189 16 -234 3 -101 -30
-449 -44 -590 -24 -119 18 -303 61 -360 86 -11 4 -51 20 -90 35 -119 45 -366
188 -431 250 -6 5 -28 24 -50 40 -116 91 -284 283 -374 428 -47 75 -133 245
-155 307 -60 170 -98 322 -113 458 -9 88 -9 12439 1 12517 6 53 29 186 41 240
40 178 140 422 238 583 241 395 626 688 1046 797 52 14 109 28 126 30 17 3 45
8 61 11 72 13 99 15 250 18 88 2 192 0 230 -5 39 -5 90 -12 114 -15 25 -3 48
-7 51 -9 4 -2 21 -7 39 -10 117 -20 373 -114 451 -165 8 -5 33 -19 55 -31 73
-39 220 -146 310 -226 101 -89 294 -312 295 -340 0 -6 3 -13 8 -15 13 -5 89
-138 131 -229 66 -141 125 -331 146 -468 3 -20 8 -48 12 -61 4 -14 8 -484 10
-1045 4 -1244 10 -2395 13 -2415 1 -8 11 -53 22 -100 53 -226 162 -422 323
-585 182 -184 382 -292 638 -346 95 -20 133 -22 572 -23 505 -2 540 0 640 49
108 53 192 152 234 274 70 205 -16 437 -205 551 -107 64 -139 68 -609 68 -231
0 -436 3 -455 7 -77 14 -162 83 -202 165 l-23 45 -1 1600 c-1 1379 -5 1721
-18 1830 -57 456 -199 845 -442 1210 -324 489 -795 863 -1339 1063 -97 36
-257 86 -311 96 -10 2 -39 9 -64 14 -181 42 -356 59 -592 60 -108 0 -198 -1
-200 -3z"/>
<path d="M5708 16175 c-2 -1 -29 -5 -61 -9 -253 -26 -520 -158 -712 -352 -76
-77 -195 -228 -195 -248 0 -4 -10 -23 -23 -44 -59 -95 -120 -288 -137 -434
-25 -217 16 -362 136 -480 186 -184 492 -177 670 14 82 89 119 178 128 304 6
84 21 134 55 181 60 82 141 125 236 125 114 0 218 -69 267 -177 l22 -50 2
-2010 c1 -1105 5 -2030 8 -2055 4 -25 9 -58 11 -75 8 -81 35 -202 76 -340 47
-161 180 -422 291 -570 42 -56 197 -231 241 -272 251 -234 546 -395 872 -478
142 -36 179 -43 355 -59 25 -3 455 -5 955 -6 501 -1 930 -5 955 -10 25 -4 72
-11 105 -15 33 -3 78 -10 100 -15 22 -5 56 -11 75 -14 74 -11 293 -77 406
-121 265 -104 579 -295 771 -469 373 -339 617 -721 767 -1203 31 -99 81 -347
93 -458 4 -44 8 -998 8 -2120 l0 -2040 -23 -44 c-34 -64 -74 -103 -137 -135
-142 -71 -313 -11 -384 136 l-30 63 -1 1990 c0 1095 -3 2010 -5 2035 -11 100
-37 267 -45 295 -5 17 -19 64 -30 105 -156 558 -571 1031 -1117 1273 -122 54
-307 112 -421 131 -192 33 -381 44 -468 26 -332 -67 -486 -448 -296 -730 47
-69 133 -139 209 -167 72 -28 94 -32 213 -38 52 -3 120 -10 150 -16 30 -6 60
-12 65 -13 86 -17 242 -86 344 -154 135 -90 289 -272 362 -431 30 -65 70 -191
84 -266 5 -22 9 -944 10 -2049 2 -1105 6 -2032 9 -2060 63 -571 503 -1020
1071 -1094 66 -8 258 -8 315 1 25 3 60 9 78 11 113 17 304 94 427 174 293 189
508 515 551 837 3 28 8 59 10 70 6 28 6 4130 0 4185 -3 25 -8 74 -11 110 -3
36 -14 121 -25 190 -11 69 -22 136 -24 150 -10 59 -70 284 -107 397 -142 436
-383 862 -687 1213 -89 103 -289 299 -387 380 -49 41 -92 77 -95 80 -13 14
-193 142 -270 192 -364 236 -776 403 -1215 494 -105 21 -140 27 -245 39 -36 4
-74 9 -85 11 -62 12 -330 16 -1125 19 -487 1 -898 5 -915 9 -16 3 -52 11 -80
17 -160 34 -361 141 -480 256 -167 160 -267 340 -316 568 -16 74 -17 224 -19
2065 -1 1092 -3 2008 -4 2035 -27 469 -351 895 -812 1069 -39 14 -79 28 -90
30 -10 3 -39 9 -64 14 -82 19 -134 25 -247 27 -62 1 -114 1 -115 0z"/>
<path d="M4940 13790 c-78 -17 -167 -68 -231 -133 -69 -70 -91 -107 -118 -205
-19 -69 -19 -137 -19 -4103 0 -3904 0 -4035 18 -4105 55 -213 253 -358 477
-349 193 8 356 131 425 321 l21 59 1 4045 c1 2225 -2 4063 -6 4085 -4 22 -9
50 -12 63 -16 76 -116 207 -196 256 -102 64 -245 90 -360 66z"/>
<path d="M7939 8556 c-2 -2 -36 -6 -74 -10 -108 -10 -294 -51 -413 -92 -291
-98 -549 -260 -772 -484 -98 -98 -240 -267 -240 -286 0 -3 -11 -20 -24 -37
-90 -121 -213 -403 -260 -597 -62 -251 -59 -134 -60 -2335 -2 -1651 -4 -2017
-15 -2050 -54 -161 -241 -243 -392 -173 -110 52 -167 141 -174 273 -8 137 -48
230 -137 319 -35 35 -87 75 -116 90 -238 120 -521 27 -639 -211 -40 -81 -48
-122 -48 -238 1 -150 22 -253 81 -412 151 -404 526 -707 964 -779 57 -9 279
-11 330 -3 30 5 71 11 90 14 196 31 421 143 592 296 190 170 321 398 384 669
16 69 18 173 21 1250 2 646 4 1580 6 2075 l3 900 27 95 c31 109 96 248 156
335 59 87 184 209 276 270 171 114 339 168 558 180 122 7 155 14 233 50 165
79 268 246 265 430 -3 188 -105 342 -279 423 -74 34 -82 36 -208 38 -72 2
-133 2 -135 0z"/>
<path d="M8680 7023 c-533 -77 -938 -471 -1045 -1018 -14 -71 -17 -242 -6
-297 27 -129 129 -266 239 -322 154 -78 344 -69 484 24 126 84 199 215 211
380 7 92 21 133 61 187 34 46 113 97 165 108 157 33 308 -62 347 -218 3 -16 8
-749 9 -1630 1 -881 5 -1629 9 -1662 9 -85 21 -170 31 -225 3 -14 7 -41 10
-60 30 -187 127 -487 224 -691 23 -48 41 -89 41 -92 0 -11 137 -238 201 -332
278 -411 703 -763 1153 -955 122 -52 295 -113 375 -131 46 -11 62 -14 104 -24
21 -6 143 -28 217 -40 171 -27 608 -27 780 1 106 17 299 60 400 89 549 160
1069 524 1421 995 62 83 169 244 169 255 0 4 9 19 20 35 82 116 251 542 284
720 2 14 13 72 25 130 11 58 23 130 26 160 3 30 8 72 11 92 12 89 11 298 0
354 -44 209 -228 362 -444 369 -92 3 -160 -12 -238 -54 -159 -84 -240 -223
-249 -424 -7 -158 -13 -221 -30 -317 -73 -407 -300 -793 -630 -1068 -267 -224
-569 -356 -925 -406 -87 -13 -381 -14 -450 -2 -14 2 -43 7 -65 10 -81 13 -102
17 -176 36 -190 47 -440 166 -594 283 -95 72 -273 247 -342 337 -230 298 -371
656 -409 1040 -4 41 -8 793 -9 1670 -1 877 -5 1615 -9 1640 -77 505 -437 907
-923 1029 -149 37 -320 46 -473 24z"/>
<path d="M4935 4545 c-300 -74 -449 -401 -309 -678 41 -80 146 -178 227 -210
71 -28 156 -45 210 -42 50 4 119 17 137 26 8 4 37 18 65 31 65 30 163 129 197
198 130 266 4 572 -272 666 -66 22 -185 26 -255 9z"/>
</g>
</svg>
